<svg width="40" height="40" viewBox="0 0 40 40" fill="none" xmlns="http://www.w3.org/2000/svg">
<path d="M35.9585 20.375C35.9585 19.2778 35.8613 18.2362 35.6946 17.2223H20.0002V23.4862H28.9863C28.5835 25.5417 27.4029 27.2778 25.6529 28.4584V32.625H31.0141C34.1529 29.7223 35.9585 25.4445 35.9585 20.375Z" fill="black"/>
<path d="M20.0002 9.9306C22.4585 9.9306 24.6529 10.7778 26.3891 12.4306L31.1391 7.6806C28.2641 4.98615 24.5002 3.33337 20.0002 3.33337C13.4863 3.33337 7.86127 7.08338 5.12516 12.5278L10.6529 16.8195C11.9724 12.8612 15.6529 9.9306 20.0002 9.9306Z" fill="black"/>
<path fill-rule="evenodd" clip-rule="evenodd" d="M20.0002 36.6667C13.4863 36.6667 7.86127 32.9167 5.12516 27.4723L10.6529 23.1806C11.9724 27.1389 15.6529 30.0695 20.0002 30.0695C22.2502 30.0695 24.1529 29.4584 25.6529 28.4584L31.0141 32.625C28.2641 35.1667 24.5002 36.6667 20.0002 36.6667ZM10.6529 16.8195V12.5278H5.12516L10.6529 16.8195Z" fill="black"/>
<path d="M5.12516 23.1806H10.6529C10.3057 22.1806 10.1252 21.1112 10.1252 20C10.1252 18.8889 10.3196 17.8195 10.6529 16.8195L5.12516 12.5278C3.98627 14.7778 3.3335 17.3056 3.3335 20C3.3335 22.6945 3.98627 25.2223 5.12516 27.4723V23.1806Z" fill="black"/>
<path d="M10.6529 23.1806H5.12516V27.4723L10.6529 23.1806Z" fill="black"/>
</svg>
