<svg width="32" height="32" viewBox="0 0 32 32" fill="none" xmlns="http://www.w3.org/2000/svg">
<path d="M16.0001 10.0002C16.0001 12.5775 13.9107 14.6668 11.3334 14.6668C8.75608 14.6668 6.66675 12.5775 6.66675 10.0002C6.66675 7.42283 8.75608 5.3335 11.3334 5.3335C13.9107 5.3335 16.0001 7.42283 16.0001 10.0002Z" stroke="#DBC7C4" stroke-width="2"/>
<path d="M18 14.6668C20.5773 14.6668 22.6667 12.5775 22.6667 10.0002C22.6667 7.42283 20.5773 5.3335 18 5.3335" stroke="#DBC7C4" stroke-width="2" stroke-linecap="round"/>
<path d="M16.3572 27H3.97619C2.60863 27 1.5 25.9767 1.5 24.7143C1.5 21.5584 4.27157 19 7.69048 19H12.6428C14.0364 19 15.3225 19.4251 16.3572 20.1424" stroke="#DBC7C4" stroke-width="2" stroke-linecap="round" stroke-linejoin="round"/>
<path d="M25.3333 18.6665V26.6665M29.3333 22.6665H21.3333" stroke="#DBC7C4" stroke-width="2" stroke-linecap="round"/>
</svg>
