<svg width="48" height="48" viewBox="0 0 48 48" fill="none" xmlns="http://www.w3.org/2000/svg">
<path d="M4.03401 40.6096C6.29131 43.8388 16.117 46.3736 20.7576 40.3284C25.777 42.7294 34.056 41.985 40.7964 38.2264C41.734 37.7036 42.6206 37.044 43.1636 36.1182C44.3896 34.028 44.4188 31.1284 42.1822 26.8498C38.453 17.541 31.7462 9.36976 29.0384 6.08376C28.4824 5.57682 24.9356 4.85686 22.7726 4.16508C21.8172 3.86904 20.0382 3.6728 17.9104 6.47676C16.9017 7.8061 12.3194 11.0709 18.1335 13.2664C19.0343 13.4956 19.6964 13.9183 23.8058 13.1676C24.341 13.0747 25.6772 13.1676 26.6188 14.8203L28.5854 17.6327C28.7684 17.8946 28.8872 18.1958 28.9236 18.5132C29.2682 21.511 29.257 25.2642 30.9284 27.1646C28.347 25.2978 21.6004 23.0806 16.5172 29.3896M4.00195 25.8796C6.41837 23.5814 13.4221 19.9514 20.834 25.0426" stroke="black" stroke-width="1.5" stroke-linecap="round" stroke-linejoin="round"/>
</svg>
