<svg width="32" height="32" viewBox="0 0 32 32" fill="none" xmlns="http://www.w3.org/2000/svg">
<path d="M27.0597 22.1294L23.526 25.8338C21.8802 27.5588 21.0573 28.4215 20.1516 28.8454C18.7664 29.4936 17.1858 29.4963 15.8026 28.8526C14.8981 28.4316 14.0777 27.5718 12.4372 25.852C11.5768 24.95 11.1466 24.4991 10.8345 23.9868C10.3584 23.2054 10.0753 22.3115 10.0108 21.3856C9.96851 20.7787 10.0556 20.1463 10.2299 18.8812L10.9977 13.3074C11.1156 12.451 11.7712 11.7849 12.5914 11.688C13.6634 11.5614 14.5994 12.4393 14.5977 13.5698L14.5938 16.1479L20.624 9.82669C21.2513 9.1691 22.2684 9.1691 22.8957 9.82669C23.523 10.4843 23.523 11.5504 22.8957 12.208M22.8957 12.208L24.4102 10.6205C25.0376 9.96289 26.0546 9.96289 26.682 10.6205C27.3093 11.2781 27.3093 12.3442 26.682 13.0018L25.1674 14.5894M22.8957 12.208L19.4881 15.78M25.1674 14.5894C25.7948 13.9318 26.8118 13.9318 27.4392 14.5894C28.0665 15.247 28.0665 16.3131 27.4392 16.9707L25.9246 18.5583M25.1674 14.5894L21.7598 18.1614M25.9246 18.5583C26.552 17.9007 27.569 17.9007 28.1964 18.5583C28.8237 19.2159 28.8237 20.282 28.1964 20.9396L26.3033 22.924M25.9246 18.5583L24.0316 20.5427" stroke="#DBC7C4" stroke-width="2" stroke-linecap="round" stroke-linejoin="round"/>
<path d="M16.3655 5.59155C16.9993 4.92241 16.9993 3.8375 16.3655 3.16835C15.7315 2.49922 14.7036 2.49922 14.0697 3.16835L7.97587 9.60062L7.97977 6.97719C7.98147 5.82691 7.03557 4.93357 5.95227 5.06239C5.12338 5.16097 4.46091 5.83878 4.34169 6.71029L3.56579 12.3821C3.38971 13.6693 3.30167 14.3129 3.34441 14.9305C3.40961 15.8726 3.69565 16.7822 4.17681 17.5774C4.49219 18.0986 4.92693 18.5576 5.79642 19.4753C5.97111 19.6597 6.13662 19.8344 6.29398 19.9998M16.3655 5.59155L17.8959 3.97609C18.5299 3.30694 19.5577 3.30694 20.1916 3.97609C20.8256 4.64523 20.8256 5.73014 20.1916 6.39929M16.3655 5.59155L14.0156 8.07183" stroke="#DBC7C4" stroke-width="2" stroke-linecap="round" stroke-linejoin="round"/>
</svg>
