<svg width="48" height="48" viewBox="0 0 48 48" fill="none" xmlns="http://www.w3.org/2000/svg">
<path d="M20 18.5105C15.2126 15.9167 10.1611 11.4286 6 4M23.231 8.83802C19.161 6.167 14.1948 7.2833 12.1388 11.3313C10.0827 15.3794 11.7153 20.8262 15.7853 23.4972C19.4699 25.9154 27.5344 28.4158 34 21.49C27.9412 18.9098 27.301 11.509 23.231 8.83802Z" stroke="black" stroke-width="1.5" stroke-linecap="round" stroke-linejoin="round"/>
<path d="M8 22C6.72186 22.9418 6 24.0108 6 25.144C6 28.9304 14.0589 32 24 32C33.9412 32 42 28.9304 42 25.144C42 24.0108 41.2782 22.9418 40 22" stroke="black" stroke-width="1.5" stroke-linecap="round"/>
<path d="M42 26C42 33.1532 36.9872 39.4294 31.5902 42.9644C30.4804 43.6914 29.1608 44 27.8342 44H20.1658C18.8392 44 17.5195 43.6914 16.4097 42.9644C11.0128 39.4294 6 33.1532 6 26" stroke="black" stroke-width="1.5" stroke-linecap="round"/>
</svg>
