<svg width="40" height="40" viewBox="0 0 40 40" fill="none" xmlns="http://www.w3.org/2000/svg">
<rect width="40" height="40" transform="translate(1.74846e-06 40) rotate(-90)" fill="#F9F5F2"/>
<path d="M22.8858 20.0062L11.6784 9.23171C11.3698 8.93575 11.2001 8.54004 11.2001 8.11811C11.2001 7.69595 11.3698 7.30047 11.6784 7.00404L12.6605 6.06043C12.9686 5.76354 13.3804 5.6001 13.8193 5.6001C14.2583 5.6001 14.6696 5.76354 14.978 6.06043L28.3222 18.8884C28.6317 19.1857 28.8013 19.5831 28.8 20.0055C28.8013 20.4298 28.632 20.8266 28.3222 21.1242L14.9904 33.9398C14.6821 34.2367 14.2707 34.4001 13.8315 34.4001C13.3926 34.4001 12.9812 34.2367 12.6726 33.9398L11.6908 32.9962C11.052 32.382 11.052 31.3822 11.6908 30.7683L22.8858 20.0062Z" fill="#6C524B"/>
</svg>
