<svg width="20" height="20" viewBox="0 0 20 20" fill="none" xmlns="http://www.w3.org/2000/svg">
<g clip-path="url(#clip0_0_6856)">
<g clip-path="url(#clip1_0_6856)">
<path d="M18.4663 4.71376C17.8301 4.99517 17.1554 5.17999 16.4646 5.26209C17.1927 4.82662 17.7377 4.14127 17.9979 3.33376C17.3146 3.74043 16.5654 4.02543 15.7846 4.17959C15.2601 3.61841 14.5649 3.24623 13.8071 3.12091C13.0492 2.9956 12.2712 3.12417 11.594 3.48664C10.9167 3.84911 10.3782 4.42516 10.0622 5.12525C9.74617 5.82534 9.67026 6.61024 9.84631 7.35793C8.46056 7.28847 7.10492 6.92836 5.86738 6.30098C4.62984 5.6736 3.53808 4.79297 2.66297 3.71626C2.35321 4.2483 2.19043 4.85312 2.19131 5.46876C2.19131 6.67709 2.80631 7.74459 3.74131 8.36959C3.18798 8.35217 2.64683 8.20274 2.16297 7.93376V7.97709C2.16314 8.78184 2.44161 9.56177 2.95118 10.1846C3.46074 10.8075 4.17004 11.235 4.95881 11.3946C4.44515 11.5338 3.90656 11.5543 3.38381 11.4546C3.60619 12.1473 4.03964 12.7531 4.62347 13.1872C5.20729 13.6213 5.91225 13.8619 6.63964 13.8754C5.91671 14.4432 5.08895 14.8629 4.20371 15.1106C3.31846 15.3582 2.39308 15.429 1.48047 15.3188C3.07355 16.3433 4.92805 16.8872 6.82214 16.8854C13.2329 16.8854 16.7388 11.5746 16.7388 6.96876C16.7388 6.81876 16.7346 6.66709 16.7279 6.51876C17.4103 6.02557 17.9993 5.41461 18.4671 4.71459L18.4663 4.71376Z" fill="black"/>
</g>
</g>
<defs>
<clipPath id="clip0_0_6856">
<rect width="20" height="20" fill="white"/>
</clipPath>
<clipPath id="clip1_0_6856">
<rect width="20" height="20" fill="white"/>
</clipPath>
</defs>
</svg>
